<svg width="64" height="64" viewBox="0 0 64 64" fill="none" xmlns="http://www.w3.org/2000/svg">
<path d="M6.20002 57.475C6.20002 57.475 8.02702 64.502 19.458 62.705L21.402 58L18.114 54.427L9.00902 51.424L6.19702 57.476" fill="#34484C"/>
<path d="M42.63 44.3C42.63 46.79 41.345 47.442 38.116 48.81L10.511 60.463C9.9184 60.4631 9.33159 60.3465 8.7841 60.1197C8.23661 59.8929 7.73918 59.5605 7.32024 59.1413C6.9013 58.7222 6.56907 58.2246 6.34254 57.6771C6.116 57.1295 5.99961 56.5426 6 55.95V17.168C6 14.672 7.464 13.845 10.511 12.653L38.116 1C39.3123 0.999735 40.4598 1.47458 41.3061 2.32012C42.1523 3.16566 42.6282 4.31269 42.629 5.509V44.299" fill="#1EA0CD"/>
<path d="M8.51003 59.987C8.51003 59.987 18.856 62.957 19.458 62.701C20.063 62.444 19.073 58.214 19.073 58.214L15.331 54.183L11.848 54.023L11.235 54.893L8.50903 59.987" fill="#34484C"/>
<path d="M37.4679 3.68301L6.84595 16.551L8.28095 24.794L12.8359 25.25L28.0499 22.8L37.5089 17.843L44.4719 8.30801C42.9499 5.57901 40.7169 3.89001 37.4689 3.68301" fill="#F4F5F5"/>
<path d="M14.958 19.402C14.958 18.682 15.082 18.102 15.331 17.612C12.2 17.322 9.24096 16.413 7.07796 14.467C6.36396 15.125 6.01196 15.945 6.01196 17.167V55.951C6.01144 56.5435 6.12768 57.1302 6.35404 57.6778C6.58041 58.2253 6.91245 58.7228 7.33121 59.1419C7.74996 59.5611 8.2472 59.8936 8.79452 60.1204C9.34184 60.3473 9.9285 60.464 10.521 60.464L14.977 58.583C14.9644 58.452 14.9577 58.3206 14.957 58.189V19.402H14.958Z" fill="#34484C"/>
<path d="M52.372 48.122C52.372 50.617 51.093 51.267 47.86 52.635L19.462 62.704C18.2651 62.7037 17.1174 62.2282 16.2711 61.3819C15.4248 60.5356 14.9492 59.3878 14.949 58.191V19.405C14.949 16.913 16.415 16.083 19.462 14.894L47.86 4.82401C49.0567 4.82427 50.2044 5.29986 51.0505 6.14619C51.8966 6.99251 52.372 8.14026 52.372 9.33701V48.122Z" fill="#57C6E9"/>
<path d="M40.6139 16.662C40.6431 16.7369 40.6571 16.8168 40.6552 16.8971C40.6533 16.9775 40.6355 17.0567 40.6029 17.1301C40.5703 17.2035 40.5235 17.2698 40.4651 17.325C40.4068 17.3803 40.338 17.4234 40.2629 17.452L25.1589 23.277C25.0081 23.3352 24.8404 23.3314 24.6924 23.2664C24.5444 23.2014 24.4281 23.0805 24.3689 22.93C24.3108 22.7784 24.3149 22.6099 24.3805 22.4614C24.4461 22.3128 24.5677 22.1962 24.7189 22.137L39.8239 16.315C39.8986 16.2859 39.9783 16.2718 40.0584 16.2735C40.1385 16.2752 40.2175 16.2926 40.2908 16.3248C40.3642 16.3571 40.4305 16.4034 40.4859 16.4613C40.5414 16.5191 40.5849 16.5873 40.6139 16.662" fill="#198BA9"/>
<path d="M40.614 19.44C40.6428 19.5147 40.6565 19.5942 40.6544 19.6742C40.6524 19.7542 40.6345 19.833 40.6019 19.906C40.5693 19.979 40.5225 20.0449 40.4644 20.0998C40.4062 20.1548 40.3378 20.1976 40.263 20.226L25.159 26.05C25.0104 26.0981 24.8491 26.0875 24.7081 26.0204C24.5671 25.9533 24.4572 25.8347 24.4009 25.6891C24.3445 25.5434 24.3461 25.3818 24.4053 25.2372C24.4645 25.0927 24.5767 24.9764 24.719 24.912L39.824 19.088C39.9754 19.0303 40.1436 19.035 40.2916 19.101C40.4397 19.1669 40.5556 19.2888 40.614 19.44" fill="#198BA9"/>
<path d="M35.4769 24.288C35.5949 24.604 35.5209 24.924 35.3069 25.008L24.9899 28.983C24.7769 29.066 24.5059 28.881 24.3829 28.566C24.2629 28.249 24.3369 27.926 24.5509 27.847L34.8659 23.867C35.0829 23.787 35.3539 23.973 35.4779 24.287" fill="#198BA9"/>
</svg>
