<svg width="64" height="64" viewBox="0 0 64 64" fill="none" xmlns="http://www.w3.org/2000/svg">
<g clip-path="url(#clip0_35_36)">
<path d="M39.568 47.4H24.251C24.608 47.4 24.896 50.911 24.896 55.236C24.896 59.564 24.609 63.075 24.251 63.075H39.568C39.212 63.075 38.923 59.564 38.923 55.236C38.925 50.911 39.212 47.4 39.568 47.4Z" fill="#BFBEBE"/>
<path d="M29.615 47.4H24.252C24.609 47.4 24.897 50.911 24.897 55.236C24.897 59.564 24.61 63.075 24.252 63.075H29.615C29.972 63.075 30.26 59.564 30.26 55.236C30.26 50.911 29.972 47.4 29.615 47.4Z" fill="#AEAEAE"/>
<path d="M63.7839 47.31C63.7839 51.357 60.7339 54.636 56.9779 54.636H6.84794C3.08794 54.636 0.0389404 51.357 0.0389404 47.31V10.19C0.0389404 6.14999 3.08794 2.86899 6.84794 2.86899H56.9779C60.7339 2.86899 63.7839 6.14699 63.7839 10.19V47.31" fill="#D1D2D2"/>
<path d="M12.93 47.31V10.19C12.93 6.14999 15.979 2.86899 19.738 2.86899H6.84403C3.08403 2.86899 0.0350342 6.14699 0.0350342 10.19V47.31C0.0350342 51.357 3.08403 54.636 6.84403 54.636H19.738C15.979 54.636 12.93 51.356 12.93 47.309" fill="#C6C5C5"/>
<path d="M63.7841 36.941C63.7841 40.981 60.7341 44.261 56.9781 44.261H6.84806C3.08806 44.261 0.0390625 40.984 0.0390625 36.941V10.163C0.0390625 6.11601 3.08806 2.83801 6.84806 2.83801H56.9781C60.7341 2.83801 63.7841 6.11601 63.7841 10.163V36.941Z" fill="#243438"/>
<path d="M0.0360107 35.05H63.785V46.417H0.0360107V35.05Z" fill="#243438"/>
<path d="M58.75 6.24399H5.06896C4.62596 6.24399 4.25696 6.48899 4.25696 6.78399V41.675C4.25696 41.971 4.62596 42.215 5.06896 42.215H58.75C58.991 42.215 59.174 42.164 59.307 42.074L59.327 42.054C59.327 42.054 59.343 42.042 59.347 42.031C59.4125 41.9969 59.4678 41.946 59.507 41.8834C59.5462 41.8208 59.5679 41.7488 59.57 41.675V19.495V6.79099C59.566 6.49599 59.193 6.25099 58.75 6.25099" fill="#58C5E8"/>
<path d="M32.698 29.559C41.674 34.937 50.443 38.599 59.566 40.814V6.78399C59.566 6.48899 59.193 6.24399 58.75 6.24399H9.48999C14.55 15.779 23.258 23.904 32.7 29.559" fill="#28A6DE"/>
<path d="M32.77 35.27C21.94 29.371 11.097 21.2 4.25696 11.11V41.674C4.25696 41.97 4.62596 42.214 5.06896 42.214H48.882C43.53 40.489 38.193 38.228 32.772 35.274" fill="#28A6DE"/>
<path d="M43.721 62.727C43.721 63.429 43.383 64 42.968 64H20.858C20.439 64 20.101 63.429 20.101 62.727C20.101 62.024 20.439 61.454 20.858 61.454H42.968C43.383 61.451 43.721 62.023 43.721 62.727Z" fill="#D1D2D2"/>
<path d="M27.937 62.727C27.937 62.024 28.275 61.454 28.69 61.454H20.565C20.149 61.454 19.812 62.024 19.812 62.727C19.812 63.429 20.15 64 20.565 64H28.69C28.275 64 27.937 63.429 27.937 62.727Z" fill="#C6C5C5"/>
<path d="M34.3301 48.615C34.2321 48.521 34.0891 48.494 33.8941 48.55L32.7711 48.837C32.4211 48.932 32.2441 49.163 32.2441 49.535L32.2401 50.736C32.2401 50.91 32.2791 51.039 32.3571 51.113C32.3901 51.1447 32.4292 51.1693 32.472 51.1853C32.5148 51.2013 32.5605 51.2083 32.6061 51.206C32.6661 51.206 32.7221 51.193 32.7941 51.179L33.9161 50.893C34.2661 50.799 34.4441 50.567 34.4481 50.19V48.993C34.4451 48.816 34.4061 48.689 34.3301 48.615V48.615ZM33.7341 49.982C33.7341 50.115 33.6721 50.197 33.5451 50.232L33.1471 50.336C33.1253 50.3404 33.1033 50.343 33.0811 50.344C33.0484 50.3447 33.0165 50.3337 32.9911 50.313C32.9651 50.288 32.9481 50.241 32.9531 50.173V49.746C32.9531 49.613 33.0151 49.531 33.1401 49.497L33.5431 49.393C33.6121 49.377 33.6641 49.385 33.6941 49.416C33.7241 49.443 33.7371 49.488 33.7371 49.552V49.983H33.7341V49.982Z" fill="#243438"/>
<path d="M31.5801 49.53C31.5801 49.158 31.4051 48.926 31.0521 48.832L29.9301 48.545C29.7361 48.489 29.5921 48.519 29.4991 48.61C29.4171 48.684 29.3781 48.811 29.3781 48.987L29.3821 50.182C29.3861 50.559 29.5611 50.792 29.9101 50.885L31.0361 51.172C31.1021 51.192 31.1641 51.199 31.2181 51.199C31.2638 51.2015 31.3096 51.1944 31.3524 51.1782C31.3953 51.162 31.4343 51.1371 31.4671 51.105C31.5451 51.032 31.5841 50.904 31.5841 50.728L31.5801 49.53ZM30.8341 50.308C30.8141 50.329 30.7841 50.339 30.7451 50.339C30.7451 50.339 30.7021 50.335 30.6791 50.331L30.2791 50.227C30.1551 50.192 30.0891 50.11 30.0891 49.977V49.546C30.0891 49.484 30.1051 49.438 30.1311 49.41C30.1621 49.379 30.2131 49.371 30.2861 49.387L30.6861 49.491C30.8101 49.525 30.8761 49.607 30.8761 49.74V50.171C30.8761 50.233 30.8761 50.28 30.8341 50.308" fill="#243438"/>
<path d="M32.3691 52.609C32.3891 52.609 32.4081 52.605 32.4351 52.596L32.8351 52.493C32.9591 52.464 33.0251 52.378 33.0251 52.241V51.815C33.0267 51.7661 33.0131 51.7178 32.9861 51.677C32.9511 51.643 32.8961 51.639 32.8311 51.656L32.4271 51.759C32.3031 51.79 32.2401 51.875 32.2401 52.011L32.2361 52.44C32.2361 52.502 32.2521 52.544 32.2791 52.571C32.2991 52.597 32.3301 52.609 32.3691 52.609Z" fill="#243438"/>
<path d="M31.456 52.609C31.4321 52.6087 31.4085 52.6043 31.386 52.596L30.986 52.493C30.862 52.464 30.799 52.378 30.799 52.241L30.795 51.815C30.795 51.752 30.811 51.71 30.838 51.677C30.869 51.643 30.923 51.639 30.989 51.656L31.397 51.759C31.518 51.79 31.584 51.875 31.584 52.011V52.44C31.584 52.502 31.568 52.544 31.545 52.571C31.5339 52.5835 31.5202 52.5933 31.5048 52.5999C31.4894 52.6065 31.4728 52.6096 31.456 52.609" fill="#243438"/>
</g>
<defs>
<clipPath id="clip0_35_36">
<rect width="64" height="64" fill="white"/>
</clipPath>
</defs>
</svg>
