<svg width="64" height="64" viewBox="0 0 64 64" fill="none" xmlns="http://www.w3.org/2000/svg">
<path d="M36.6 15.1C34.9 17.7 30.5 20.4 26.6 22.4C26.8 22.6 27.2 23.2 27.4 23.2C28.5 22.7 29.6 22.3 30.7 21.8C32.9 20.8 35.1 19.5 37.1 18C41.1 14.8 42.6 5.2 45.5 5C47.2 5 48.8 7.5 50 8.6L51.7 6.9C51.8 6.8 50.4 5.5 50.3 5.4C48.6 3.7 46.6 1.9 43.9 2.9C40.3 4.3 38.6 12.2 36.6 15.1V15.1ZM45.9 5.1C45.9 5.1 46 5.1 45.9 5.1V5.1ZM44.6 5.3C44.5 5.3 44.5 5.3 44.6 5.3Z" fill="#93A2AA"/>
<path d="M2.30002 60.9C2.00002 61.3 1.90002 61.7 2.10002 61.9C2.30002 62.1 2.80002 62 3.10002 61.7L5.50002 60L4.00002 58.5L2.30002 60.9Z" fill="#93A2AA"/>
<path d="M28.2999 26.3L37.6999 35.7L61.0999 10.7L53.2999 2.89999L28.2999 26.3Z" fill="#42ADE2"/>
<path d="M9.37195 46.795L29.1009 27.067L36.879 34.845L17.1499 54.573L9.37195 46.795Z" fill="#42ADE2"/>
<path d="M3.19995 57.7L6.29995 60.8L17.2 54.6L9.39995 46.8L3.19995 57.7Z" fill="#C7D3D8"/>
<path d="M31.1999 23.4L40.5999 32.8L37.6999 35.7L28.2999 26.3L31.1999 23.4Z" fill="#C7D3D8"/>
<path d="M53.8 3.40001L60.6 10.2C62.5 8.30001 62.5 5.30001 60.6 3.40001C58.7 1.50001 55.7 1.50001 53.8 3.40001" fill="#42ADE2"/>
<path d="M51.953 3.748L53.367 2.334L61.711 10.678L60.297 12.092L51.953 3.748Z" fill="#C7D3D8"/>
</svg>
